<svg width="25" height="27" viewBox="0 0 25 27" fill="none" xmlns="http://www.w3.org/2000/svg">
<path fill-rule="evenodd" clip-rule="evenodd" d="M12.5 2.07692C6.65853 2.07692 1.92308 7.19121 1.92308 13.5C1.92308 19.8088 6.65853 24.9231 12.5 24.9231C18.3415 24.9231 23.0769 19.8088 23.0769 13.5C23.0769 7.19121 18.3415 2.07692 12.5 2.07692ZM0 13.5C0 6.04416 5.59644 0 12.5 0C19.4036 0 25 6.04416 25 13.5C25 20.9559 19.4036 27 12.5 27C5.59645 27 0 20.9559 0 13.5ZM19.5902 8.61185C19.9657 9.0174 19.9657 9.67491 19.5902 10.0805L10.6158 19.7728C10.2403 20.1783 9.63147 20.1783 9.25597 19.7728L5.40976 15.6189C5.03425 15.2134 5.03425 14.5559 5.40975 14.1503C5.78525 13.7448 6.39407 13.7448 6.76957 14.1503L9.93587 17.5699L18.2303 8.61185C18.6059 8.20631 19.2147 8.20631 19.5902 8.61185Z" fill="#4DD4FF"/>
</svg>
