<svg width="25" height="28" viewBox="0 0 25 28" fill="none" xmlns="http://www.w3.org/2000/svg">
<path fill-rule="evenodd" clip-rule="evenodd" d="M9.61537 12.5C10.4119 12.5 11.0577 13.115 11.0577 13.8736V20.7418C11.0577 21.5004 10.4119 22.1154 9.61537 22.1154C8.81881 22.1154 8.17307 21.5004 8.17307 20.7418V13.8736C8.17307 13.115 8.81881 12.5 9.61537 12.5Z" fill="#C7C7C7"/>
<path fill-rule="evenodd" clip-rule="evenodd" d="M15.3846 12.5C16.1812 12.5 16.8269 13.115 16.8269 13.8736V20.7418C16.8269 21.5004 16.1812 22.1154 15.3846 22.1154C14.5881 22.1154 13.9423 21.5004 13.9423 20.7418V13.8736C13.9423 13.115 14.5881 12.5 15.3846 12.5Z" fill="#C7C7C7"/>
<path fill-rule="evenodd" clip-rule="evenodd" d="M0 6.73076C0 5.9342 0.621827 5.28845 1.38889 5.28845H23.6111C24.3782 5.28845 25 5.9342 25 6.73076C25 7.52732 24.3782 8.17307 23.6111 8.17307H1.38889C0.621827 8.17307 0 7.52732 0 6.73076Z" fill="#C7C7C7"/>
<path fill-rule="evenodd" clip-rule="evenodd" d="M4.25824 9.61539C5.01687 9.61539 5.63187 10.228 5.63187 10.9837V21.9305C5.63187 23.442 6.86184 24.6672 8.37912 24.6672H16.6209C18.1382 24.6672 19.3681 23.442 19.3681 21.9305V10.9837C19.3681 10.228 19.9831 9.61539 20.7418 9.61539C21.5004 9.61539 22.1154 10.228 22.1154 10.9837V21.9305C22.1154 24.9534 19.6555 27.4038 16.6209 27.4038H8.37912C5.34461 27.4038 2.88461 24.9534 2.88461 21.9305V10.9837C2.88461 10.228 3.49961 9.61539 4.25824 9.61539Z" fill="#C7C7C7"/>
<path fill-rule="evenodd" clip-rule="evenodd" d="M11.0577 2.72436C10.2611 2.72436 9.61539 3.33423 9.61539 4.08654V5.44872H15.3846V4.08654C15.3846 3.33421 14.7389 2.72436 13.9423 2.72436H11.0577ZM6.73077 4.08654C6.73077 1.8296 8.668 0 11.0577 0H13.9423C16.3321 0 18.2692 1.82962 18.2692 4.08654V6.8109C18.2692 7.56321 17.6235 8.17308 16.8269 8.17308H8.17308C7.37652 8.17308 6.73077 7.56321 6.73077 6.8109V4.08654Z" fill="#C7C7C7"/>
</svg>
