<svg width="15" height="15" viewBox="0 0 15 15" fill="none" xmlns="http://www.w3.org/2000/svg">
<path d="M7.5 4.375C7.84519 4.375 8.125 4.65483 8.125 5V8.125C8.125 8.47019 7.84519 8.75 7.5 8.75C7.15481 8.75 6.875 8.47019 6.875 8.125V5C6.875 4.65483 7.15481 4.375 7.5 4.375Z" fill="#FF0000"/>
<path d="M7.5 10.625C7.84519 10.625 8.125 10.3452 8.125 10C8.125 9.65481 7.84519 9.375 7.5 9.375C7.15481 9.375 6.875 9.65481 6.875 10C6.875 10.3452 7.15481 10.625 7.5 10.625Z" fill="#FF0000"/>
<path fill-rule="evenodd" clip-rule="evenodd" d="M7.5 1.25C4.04822 1.25 1.25 4.04822 1.25 7.5C1.25 10.9518 4.04822 13.75 7.5 13.75C10.9518 13.75 13.75 10.9518 13.75 7.5C13.75 4.04822 10.9518 1.25 7.5 1.25ZM2.5 7.5C2.5 4.73858 4.73858 2.5 7.5 2.5C10.2614 2.5 12.5 4.73858 12.5 7.5C12.5 10.2614 10.2614 12.5 7.5 12.5C4.73858 12.5 2.5 10.2614 2.5 7.5Z" fill="#FF0000"/>
</svg>
