<svg width="75" height="75" viewBox="0 0 75 75" fill="none" xmlns="http://www.w3.org/2000/svg">
<circle cx="37" cy="37" r="24" fill="white"/>
<path fill-rule="evenodd" clip-rule="evenodd" d="M0 37.1771C0 16.6447 16.6447 0 37.1771 0C57.7095 0 74.3542 16.6447 74.3542 37.1771C74.3542 57.7095 57.7095 74.3542 37.1771 74.3542C16.6447 74.3542 0 57.7095 0 37.1771ZM37.1771 19.9109C38.6095 19.911 39.7708 21.0722 39.7708 22.5047V34.5833H51.875C53.3074 34.5833 54.4687 35.7446 54.4687 37.1771C54.4687 38.6095 53.3074 39.7708 51.875 39.7708H39.7708V51.8494C39.7708 53.2818 38.6095 54.4431 37.1771 54.4431C35.7443 54.4431 34.5833 53.2818 34.5833 51.8494V39.7708H22.5302C21.0977 39.7708 19.9365 38.6095 19.9365 37.1771C19.9365 35.7443 21.0977 34.5833 22.5302 34.5833H34.5833V22.5047C34.5833 21.0722 35.7446 19.9109 37.1771 19.9109Z" fill="#FF739D"/>
</svg>
